<svg width="70" height="70" viewBox="0 0 70 70" fill="none" xmlns="http://www.w3.org/2000/svg">
<rect width="70" height="70" rx="15" fill="#B8C9D8"/>
<path fill-rule="evenodd" clip-rule="evenodd" d="M52.3914 42.5619C51.4097 42.6227 49.892 42.8267 49.0094 42.525L36.9903 38.4097L38.7555 58.5436H42.7877C43.7392 58.5436 43.7392 60 42.7877 60H26.2848C25.3332 60 25.3332 58.5436 26.2848 58.5436H30.3147L32.4287 33.5321L17.0837 42.4638C16.4658 42.8241 15.7619 42.1512 16.0784 41.5109H16.0762C16.5197 40.6166 17.0945 39.2015 17.8027 38.5741L28.0886 29.4818C29.0875 28.5984 30.5083 28.2837 31.7031 28.9783L32.6891 29.5535C32.9991 29.2474 33.3844 29.0195 33.815 28.8958V10.7284C33.815 10.0165 34.7579 9.69738 35.1647 10.3703C35.7115 11.2667 36.6028 12.3108 36.7987 13.3048L39.4659 26.8319C39.7243 28.1429 39.2786 29.5451 38.0903 30.2375V30.2397L37.1043 30.8127V32.1259L52.7095 41.2098C53.3273 41.568 53.1013 42.5187 52.393 42.5621L52.3914 42.5619ZM33.3352 31.3903C33.2426 31.6725 33.5612 32.2173 33.6839 32.328L33.6861 32.3258C34.7947 33.4263 36.5471 31.7788 35.3889 30.6089L35.391 30.6068C34.6634 29.8775 33.4019 30.3441 33.3352 31.3903ZM35.2598 28.8985C35.6882 29.0222 36.0714 29.2501 36.3814 29.554L37.3674 28.9788V28.981C38.0089 28.5924 38.1897 27.8219 38.0476 27.1078L35.2577 13.2051V28.8981L35.2598 28.8985ZM36.1015 33.6195C35.8517 33.8061 35.5676 33.9472 35.2598 34.0362C35.2598 35.1345 35.0509 36.209 36.5213 36.7147L49.8686 41.2316L36.3835 33.3784L36.1015 33.6195ZM31.9703 32.1218V30.8108C31.0382 30.2681 30.2072 29.5432 29.0383 30.5763L18.4873 39.9704L31.9703 32.1218ZM35.4901 37.8412C33.8432 36.9469 33.813 35.7249 33.813 34.288L31.7636 58.5438H37.3072L35.4901 37.8412Z" fill="#003F72"/>
</svg>
