<svg width="70" height="70" viewBox="0 0 70 70" fill="none" xmlns="http://www.w3.org/2000/svg">
<rect width="70" height="70" rx="15" fill="#B8C9D8"/>
<path fill-rule="evenodd" clip-rule="evenodd" d="M40.6198 36.528V36.5305C38.4735 41.1342 39.8419 45.3342 42.946 48.5769C45.4642 51.2166 49.1829 53.1977 52.9582 54.1627C52.9679 54.1651 52.9825 54.1675 52.9922 54.17C53.9548 54.396 54.9757 54.1724 55.7608 53.5623C56.5483 52.9497 57.0175 52.0163 57.0345 51.0198V50.9955C57.0345 47.0942 56.0282 43.0056 54.0933 39.9067C51.7112 36.1027 47.9752 33.7449 42.9847 34.6904C41.9492 34.8898 41.0646 35.5728 40.6198 36.528ZM42.6057 38.5383C41.5435 41.6836 42.6616 44.5324 44.8176 46.7832C47.0271 49.0924 50.2843 50.8012 53.5971 51.652C53.8013 51.6908 54.0103 51.6422 54.1732 51.5158C54.3361 51.387 54.4406 51.1925 54.4406 50.9738C54.4406 47.5659 53.5825 43.9901 51.8883 41.2827C50.301 38.7352 47.9359 36.9852 44.8001 37.0872C46.6135 38.9929 48.8594 41.7178 50.0091 44.153C50.3178 44.7996 50.0407 45.5725 49.3942 45.8788C48.7452 46.1827 47.9747 45.9056 47.6684 45.259C46.5575 42.9085 44.3072 40.2739 42.6057 38.5383ZM7.12921 41.0759H27.8997C29.6109 41.0759 30.9965 42.4614 30.9965 44.1678C30.9965 45.8742 29.6109 47.2597 27.8997 47.2597C26.2006 47.2597 24.8152 45.8742 24.8152 44.1678C24.8152 43.4508 24.2318 42.8698 23.5172 42.8698C22.7977 42.8698 22.2216 43.4508 22.2216 44.1678C22.2216 47.3035 24.7666 49.8508 27.8998 49.8508C31.0354 49.8508 33.5876 47.3034 33.5876 44.1678C33.5876 41.0297 31.0354 38.4824 27.8998 38.4824H7.12927C6.40732 38.4824 5.83372 39.0633 5.83372 39.7779C5.83372 40.495 6.40731 41.0759 7.12921 41.0759ZM7.12921 45.9252H16.4289C17.1411 45.9252 17.7245 45.3443 17.7245 44.6297C17.7245 43.915 17.1411 43.3341 16.4289 43.3341H7.12921C6.40726 43.3341 5.83365 43.915 5.83365 44.6297C5.83365 45.3443 6.40731 45.9252 7.12921 45.9252ZM7.12921 33.8054H35.612C39.72 33.8054 43.05 30.4729 43.05 26.365C43.05 22.2595 39.7199 18.9271 35.612 18.9271C31.5065 18.9271 28.1766 22.2596 28.1766 26.365C28.1766 27.082 28.7503 27.663 29.4649 27.663C30.1844 27.663 30.7678 27.082 30.7678 26.365C30.7678 23.6912 32.9409 21.5206 35.6122 21.5206C38.286 21.5206 40.4567 23.6912 40.4567 26.365C40.4567 29.0412 38.286 31.2143 35.6122 31.2143H7.12939C6.40744 31.2143 5.83384 31.7952 5.83384 32.5098C5.83384 33.2244 6.40731 33.8054 7.12921 33.8054ZM48.8669 29.0679V29.0703C52.2529 31.2434 55.7043 30.6333 58.5972 28.5453C60.8821 26.8949 62.7926 24.2842 63.9521 21.5063C63.9594 21.4966 63.9594 21.4893 63.9594 21.482C64.2924 20.6507 64.2195 19.7173 63.7746 18.9467C63.3274 18.1762 62.5593 17.6488 61.6745 17.5175C61.6672 17.515 61.6599 17.515 61.6429 17.5126C58.6628 17.1261 55.4446 17.4786 52.8702 18.6307C49.6203 20.0892 47.3671 22.7727 47.5542 26.793V26.7954C47.5956 27.7215 48.089 28.5672 48.8669 29.0679ZM51.8883 27.6265C53.7186 28.1321 55.5173 27.573 57.073 26.4452C58.9932 25.0597 60.5805 22.8551 61.5528 20.5118C61.5868 20.4243 61.5771 20.3246 61.5285 20.242C61.4798 20.1569 61.3923 20.0986 61.2951 20.0816C58.7915 19.7607 56.0861 20.0305 53.93 20.998C51.9611 21.8803 50.4638 23.3776 50.1794 25.592C51.7035 24.8287 53.072 23.9173 54.3432 22.7529C54.878 22.2692 55.6972 22.3057 56.1736 22.8332C56.6597 23.3631 56.6208 24.1822 56.0934 24.6659C54.7978 25.8546 53.4123 26.8122 51.8883 27.6265ZM7.12889 26.5351H21.7838C24.9195 26.5351 27.462 23.9877 27.462 20.8521C27.462 17.714 24.9195 15.1667 21.7838 15.1667C18.6482 15.1667 16.096 17.7141 16.096 20.8521C16.096 21.5667 16.6793 22.1477 17.3939 22.1477C18.1134 22.1477 18.6895 21.5667 18.6895 20.8521C18.6895 19.1457 20.075 17.7602 21.7838 17.7602C23.4926 17.7602 24.8781 19.1457 24.8781 20.8521C24.8781 22.5585 23.4926 23.944 21.7838 23.944H7.12889C6.40695 23.944 5.83334 24.525 5.83334 25.2396C5.83334 25.9542 6.407 26.5351 7.12889 26.5351Z" fill="#003F72"/>
</svg>
