<svg width="70" height="70" viewBox="0 0 70 70" fill="none" xmlns="http://www.w3.org/2000/svg">
<rect width="70" height="70" rx="15" fill="#B8C9D8"/>
<path fill-rule="evenodd" clip-rule="evenodd" d="M25.4871 59.9105C24.3862 59.5681 23.3676 59.0047 22.4942 58.2552C20.8625 56.7767 19.8504 54.741 19.6596 52.5535C19.4407 50.374 19.6836 48.1731 20.3726 46.0928C21.0198 43.9863 22.0839 42.0298 23.5023 40.3384C27.2064 35.9856 30.9098 33.6883 34.6108 33.6246C38.3697 33.5596 41.9345 35.7667 45.294 40.4298L45.3107 40.4531C47.15 42.7704 48.4513 45.4639 49.1213 48.3404C49.5498 50.0679 49.6248 51.8634 49.3419 53.6203C49.0575 55.4027 48.1447 57.0262 46.7668 58.2C45.6878 59.0754 44.4126 59.679 43.0492 59.9595C42.943 59.9833 42.8345 59.9954 42.7257 59.9957V60H25.9955C25.8229 60.0002 25.6517 59.9701 25.4896 59.9111L25.4871 59.9105ZM42.0016 12.9416C41.5998 12.9799 41.2132 13.1146 40.875 13.334C40.5369 13.5534 40.2572 13.8511 40.0599 14.2015C39.3444 15.3272 38.9798 16.6386 39.0124 17.9701C38.9798 19.3017 39.3444 20.613 40.0599 21.7387C40.2572 22.0892 40.5369 22.3868 40.875 22.6063C41.2132 22.8257 41.5998 22.9603 42.0016 22.9986C42.4036 22.9604 42.7903 22.8258 43.1285 22.6064C43.4668 22.387 43.7466 22.0893 43.9439 21.7387C44.6595 20.613 45.024 19.3017 44.9915 17.9701C45.024 16.6386 44.6595 15.3272 43.9439 14.2015C43.7466 13.851 43.4668 13.5533 43.1285 13.3339C42.7903 13.1144 42.4036 12.9799 42.0016 12.9416ZM37.6265 12.5474C38.0636 11.7745 38.6995 11.1313 39.4689 10.6836C40.2384 10.2359 41.1137 10 42.005 10C42.8964 10 43.7717 10.2359 44.5411 10.6836C45.3105 11.1313 45.9464 11.7745 46.3835 12.5474C47.4354 14.1602 47.9815 16.0478 47.9524 17.9701C47.9815 19.8925 47.4354 21.78 46.3835 23.3928C45.9464 24.1657 45.3105 24.809 44.5411 25.2567C43.7717 25.7043 42.8964 25.9403 42.005 25.9403C41.1137 25.9403 40.2384 25.7043 39.4689 25.2567C38.6995 24.809 38.0636 24.1657 37.6265 23.3928C36.5746 21.78 36.0285 19.8925 36.0576 17.9701C36.0285 16.0478 36.5746 14.1602 37.6265 12.5474ZM27.0893 10.0001C27.9734 10.0316 28.8359 10.2807 29.5994 10.7253C30.363 11.1699 31.0038 11.7959 31.4644 12.5474C32.5163 14.1602 33.0624 16.0478 33.0333 17.9701C33.0624 19.8925 32.5163 21.78 31.4644 23.3928C31.0038 24.1443 30.363 24.7704 29.5994 25.2149C28.8359 25.6595 27.9734 25.9087 27.0893 25.9402C26.2046 25.9092 25.3415 25.6602 24.5774 25.2157C23.8133 24.7711 23.172 24.1447 22.7111 23.3928C21.6592 21.78 21.1131 19.8925 21.1422 17.9701C21.1131 16.0478 21.6592 14.1602 22.7111 12.5474C23.172 11.7955 23.8133 11.1692 24.5774 10.7246C25.3415 10.28 26.2046 10.0311 27.0893 10.0001ZM29.0316 14.2015C28.8343 13.851 28.5545 13.5533 28.2162 13.3339C27.8779 13.1144 27.4913 12.9799 27.0893 12.9416C26.6874 12.9799 26.3009 13.1146 25.9627 13.334C25.6246 13.5534 25.3449 13.8511 25.1476 14.2015C24.432 15.3272 24.0675 16.6386 24.1 17.9701C24.0675 19.3017 24.432 20.613 25.1476 21.7387C25.3449 22.0892 25.6246 22.3868 25.9627 22.6063C26.3009 22.8257 26.6874 22.9603 27.0893 22.9986C27.491 22.9602 27.8775 22.8255 28.2155 22.6061C28.5535 22.3867 28.8331 22.0891 29.0304 21.7387C29.7459 20.613 30.1105 19.3017 30.0779 17.9701C30.1105 16.6386 29.7459 15.3272 29.0304 14.2015H29.0316ZM53.1421 25.256C52.7401 25.2942 52.3535 25.4288 52.0152 25.6482C51.6769 25.8677 51.3972 26.1654 51.1998 26.5159C50.4842 27.6416 50.1197 28.9529 50.1523 30.2845C50.1197 31.6161 50.4842 32.9274 51.1998 34.0531C51.3663 34.4271 51.6383 34.745 51.9829 34.9681C52.3275 35.1913 52.7298 35.3101 53.1409 35.3101C53.552 35.3101 53.9543 35.1913 54.2989 34.9681C54.6435 34.745 54.9155 34.4271 55.082 34.0531C55.7975 32.9274 56.1621 31.6161 56.1295 30.2845C56.1621 28.9529 55.7975 27.6416 55.082 26.5159C54.8845 26.1654 54.6047 25.8678 54.2665 25.6484C53.9282 25.429 53.5416 25.2943 53.1397 25.256H53.1421ZM48.7633 24.8618C47.7115 26.4746 47.1654 28.3621 47.1944 30.2845C47.1654 32.2069 47.7115 34.0944 48.7633 35.7072C49.2005 36.4801 49.8364 37.1233 50.6059 37.571C51.3754 38.0186 52.2507 38.2545 53.1421 38.2545C54.0335 38.2545 54.9088 38.0186 55.6783 37.571C56.4478 37.1233 57.0838 36.4801 57.5209 35.7072C58.5728 34.0944 59.1189 32.2069 59.0898 30.2845C59.1189 28.3621 58.5728 26.4746 57.5209 24.8618C57.0838 24.0889 56.4478 23.4457 55.6783 22.998C54.9088 22.5504 54.0335 22.3145 53.1421 22.3145C52.2507 22.3145 51.3754 22.5504 50.6059 22.998C49.8364 23.4457 49.2005 24.0889 48.7633 24.8618ZM15.9488 22.3144C15.0641 22.3455 14.2009 22.5945 13.4367 23.039C12.6725 23.4836 12.0311 24.1099 11.57 24.8618C10.5181 26.4746 9.97202 28.3621 10.0011 30.2845C9.97202 32.2069 10.5181 34.0944 11.57 35.7072C12.0311 36.4591 12.6725 37.0854 13.4367 37.53C14.2009 37.9745 15.0641 38.2235 15.9488 38.2546C16.8335 38.2236 17.6967 37.9746 18.4609 37.53C19.2251 37.0854 19.8665 36.4591 20.3276 35.7072C21.3795 34.0944 21.9256 32.2069 21.8965 30.2845C21.9256 28.3621 21.3795 26.4746 20.3276 24.8618C19.8665 24.1099 19.2251 23.4836 18.4609 23.039C17.6967 22.5944 16.8335 22.3454 15.9488 22.3144ZM17.8911 26.5159C18.6067 27.6416 18.9712 28.9529 18.9386 30.2845C18.9712 31.6161 18.6067 32.9274 17.8911 34.0531C17.6938 34.4036 17.414 34.7014 17.0757 34.9208C16.7374 35.1402 16.3508 35.2748 15.9488 35.313C15.5468 35.2747 15.1602 35.1401 14.822 34.9206C14.4837 34.7012 14.2039 34.4036 14.0065 34.0531C13.2909 32.9274 12.9264 31.6161 12.9589 30.2845C12.9264 28.9529 13.2909 27.6416 14.0065 26.5159C14.2039 26.1654 14.4837 25.8678 14.822 25.6484C15.1602 25.429 15.5468 25.2943 15.9488 25.256C16.3508 25.2942 16.7374 25.4288 17.0757 25.6482C17.414 25.8677 17.6938 26.1654 17.8911 26.5159ZM24.4396 56.0468C24.9676 56.4951 25.5772 56.8383 26.2352 57.0578H42.5716C43.4131 56.8713 44.2004 56.4955 44.8732 55.9592C45.721 55.2179 46.2775 54.2018 46.4439 53.0912C46.6531 51.7225 46.5859 50.326 46.2461 48.9835C45.6862 46.5565 44.5946 44.2824 43.0492 42.3236C42.9925 42.2664 42.9404 42.2049 42.8933 42.1397C40.1394 38.3165 37.3948 36.5042 34.6582 36.5514C31.8668 36.5999 28.8942 38.5446 25.7552 42.2316L25.7392 42.25C24.5819 43.641 23.7164 45.2484 23.1936 46.9775C22.6308 48.6595 22.4274 50.4399 22.5965 52.2047C22.7071 53.6694 23.3646 55.04 24.4396 56.0468Z" fill="#003F72"/>
</svg>
