<svg width="70" height="70" viewBox="0 0 70 70" fill="none" xmlns="http://www.w3.org/2000/svg">
<rect width="70" height="70" rx="15" fill="#B8C9D8"/>
<path d="M40.5075 35.3696V50.681C40.5075 51.6413 40.2503 52.5407 39.7758 53.3165C39.3028 54.0878 38.6155 54.725 37.7522 55.167C36.8904 55.6075 35.9719 55.7935 35.0718 55.7279C34.1611 55.6609 33.2763 55.3438 32.491 54.7829L31.7548 54.2585C31.7333 54.2448 31.7119 54.228 31.6905 54.2128L19.3589 45.4131H15.0667C13.6707 45.4131 12.4032 44.8461 11.4863 43.9331C10.5694 43.0185 10 41.7579 10 40.3678V30.373C10 28.9829 10.5694 27.7208 11.4863 26.8078C12.4048 25.8947 13.6707 25.3277 15.0667 25.3277H19.3589L31.6905 16.528C31.7119 16.5128 31.7333 16.4975 31.7548 16.4823L32.491 15.9579C33.2763 15.397 34.1611 15.0799 35.0718 15.0129C35.9719 14.9473 36.8904 15.1318 37.7522 15.5738C38.617 16.0158 39.3043 16.653 39.7758 17.4243C40.2518 18.2001 40.5075 19.0995 40.5075 20.0598V35.3712V35.3696ZM42.4607 43.2776C42.0811 42.7594 42.1974 42.0323 42.7179 41.6543C43.2383 41.2762 43.9685 41.3906 44.3481 41.9088L46.9871 45.5076C47.0468 45.5899 47.1172 45.6524 47.1937 45.6936C47.2687 45.7347 47.3606 45.7591 47.4662 45.7652C47.5764 45.7713 47.6713 45.7591 47.7494 45.7287C47.8274 45.6982 47.904 45.6418 47.979 45.564L48.2162 45.3125C48.53 44.9802 48.8944 44.7333 49.3 44.5748C49.7056 44.4162 50.1434 44.3507 50.5981 44.3827C51.0481 44.4147 51.4706 44.5412 51.8548 44.7562C52.239 44.9726 52.5666 45.2668 52.8268 45.6357L55.5791 49.5317C55.951 50.0576 55.824 50.7847 55.2959 51.1551C54.7678 51.5255 54.0376 51.399 53.6656 50.8731L50.9119 46.977C50.8476 46.8871 50.7787 46.82 50.7083 46.7804C50.6363 46.7408 50.543 46.7149 50.4312 46.7072C50.3241 46.6996 50.2307 46.7133 50.148 46.7438C50.0669 46.7758 49.9888 46.8307 49.9154 46.9069L49.6781 47.1584C49.3704 47.4846 49.0092 47.7285 48.6066 47.8886C48.2025 48.0486 47.7723 48.1172 47.3254 48.0882C46.8738 48.0608 46.4528 47.9404 46.0732 47.7346C45.6951 47.5288 45.3675 47.2392 45.0981 46.8734L42.4592 43.2746L42.4607 43.2776ZM44.3466 28.829C43.9669 29.3472 43.2383 29.4615 42.7163 29.0835C42.1959 28.7055 42.0811 27.9799 42.4592 27.4601L45.0981 23.8613C45.3675 23.4955 45.6951 23.2059 46.0732 23.0001C46.4528 22.7943 46.8723 22.6739 47.3254 22.6465C47.7723 22.619 48.2025 22.6876 48.6066 22.8462C49.0107 23.0062 49.3719 23.2501 49.6781 23.5763L49.9154 23.8278C49.9873 23.904 50.0654 23.9604 50.148 23.9909C50.2291 24.0214 50.3241 24.0351 50.4312 24.0275C50.543 24.0198 50.6363 23.9955 50.7083 23.9543C50.7787 23.9147 50.8476 23.8476 50.9119 23.7577L53.6656 19.8616C54.0376 19.3357 54.7678 19.2092 55.2959 19.5796C55.824 19.95 55.951 20.6771 55.5791 21.203L52.8268 25.099C52.5666 25.4679 52.239 25.7621 51.8548 25.9785C51.4706 26.1935 51.0481 26.32 50.5981 26.352C50.1419 26.384 49.7056 26.3185 49.3 26.1599C48.8944 26.0014 48.53 25.7545 48.2162 25.4222L47.979 25.1707C47.904 25.0914 47.8274 25.0365 47.7494 25.0061C47.6728 24.9756 47.5764 24.9634 47.4662 24.9695C47.3606 24.9756 47.2687 25 47.1937 25.0411C47.1172 25.0823 47.0483 25.1463 46.9871 25.2271L44.3481 28.8259L44.3466 28.829ZM43.8383 36.6927C43.2383 36.932 42.5587 36.6424 42.3183 36.0464C42.078 35.4489 42.3688 34.7721 42.9674 34.5328L47.0835 32.8851C47.5902 32.6823 48.1183 32.6198 48.628 32.6945L48.6785 32.7037C49.1714 32.7845 49.6413 32.9918 50.0516 33.3164L53.0396 35.6867C53.1268 35.7568 53.2187 35.8025 53.309 35.8208C53.3978 35.8391 53.4988 35.8345 53.609 35.8041L58.5272 34.4871C59.1518 34.3209 59.7932 34.6898 59.96 35.3117C60.1269 35.9336 59.7564 36.5723 59.1319 36.7384L54.2136 38.0554C53.7498 38.1789 53.2845 38.1926 52.8329 38.0996C52.3829 38.0066 51.9604 37.8085 51.5838 37.5097L48.5959 35.1395C48.504 35.0663 48.4076 35.0206 48.3127 35.0038L48.2897 35.0008C48.1826 34.9855 48.0693 34.9992 47.9545 35.0465L43.8399 36.6942L43.8383 36.6927ZM20.9049 27.0913V43.6465L31.2297 51.0149V19.7244L20.9049 27.0928V27.0913ZM18.5614 43.0779V27.6598H15.0667C14.3182 27.6598 13.637 27.9647 13.1426 28.4555C12.6497 28.9463 12.3435 29.6246 12.3435 30.3715V40.3662C12.3435 41.1116 12.6497 41.7899 13.1426 42.2823C13.6355 42.7731 14.3167 43.0779 15.0667 43.0779H18.5614ZM33.5748 18.0508V52.687L33.8519 52.8851C34.2835 53.1931 34.7565 53.3653 35.2341 53.4004C35.7209 53.4369 36.2184 53.3348 36.6883 53.0955C37.1567 52.8562 37.5271 52.5148 37.7782 52.1032C38.0277 51.6962 38.1624 51.2115 38.1624 50.681V20.0567C38.1624 19.5263 38.0277 19.04 37.7782 18.6346C37.5256 18.223 37.1552 17.8816 36.6883 17.6423C36.2184 17.4029 35.7209 17.3008 35.2341 17.3374C34.758 17.3725 34.2835 17.5447 33.8519 17.8526L33.5748 18.0508Z" fill="#003F72"/>
</svg>
