<svg width="70" height="70" viewBox="0 0 70 70" fill="none" xmlns="http://www.w3.org/2000/svg">
<rect width="70" height="70" rx="15" fill="#B8C9D8"/>
<path fill-rule="evenodd" clip-rule="evenodd" d="M51.8415 34.7221V45.5516C52.8937 45.7224 53.854 46.1683 54.6478 46.8141C55.5582 47.5537 56.2478 48.5537 56.5999 49.7038C57.4749 49.8142 58.2625 50.2205 58.8563 50.8163C59.5604 51.5205 60 52.4955 60 53.5642C60 54.6351 59.5625 55.608 58.8563 56.3122C58.1521 57.0163 57.1792 57.4538 56.1083 57.4538L50.927 57.4559H15.4555C14.7722 57.4559 14.1513 57.1767 13.7013 56.7267C13.2513 56.2767 12.9721 55.6559 12.9721 54.9725C12.9721 54.2891 13.2513 53.6683 13.7013 53.2183C13.9388 52.9808 14.2242 52.7891 14.543 52.6641L14.5409 34.714C13.9659 35.064 13.3034 35.1994 12.6659 35.1285C11.9221 35.0473 11.2054 34.691 10.6929 34.0764C10.6659 34.0473 10.6409 34.016 10.62 33.9847C10.1304 33.3514 9.9367 32.5785 10.0179 31.8368C10.1013 31.0743 10.4742 30.343 11.1159 29.8264L31.233 13.6576C31.5142 13.4305 31.8309 13.2639 32.1601 13.1534C32.4934 13.043 32.8392 12.993 33.181 13.0013C33.5226 12.9909 33.8685 13.0409 34.2018 13.1534C34.5331 13.2639 34.8477 13.4305 35.1289 13.6576L45.8747 22.2929V19.0929C45.8747 18.7012 46.1914 18.3846 46.583 18.3846H51.1289C51.5206 18.3846 51.8372 18.7012 51.8372 19.0929V27.0845L55.2477 29.8262C55.8894 30.3408 56.2623 31.072 56.3456 31.8366C56.429 32.597 56.2227 33.3887 55.7061 34.0325V34.0346C55.1915 34.6762 54.4602 35.0471 53.6977 35.1304C53.0685 35.1971 52.4124 35.0659 51.8415 34.7221ZM50.4227 45.4908V33.6197L33.183 19.7651L15.9598 33.6048V52.4861H27.6101V42.9692C27.6101 41.4337 28.2372 40.0379 29.2497 39.0254C30.2622 38.0129 31.656 37.3858 33.1935 37.3858C34.7289 37.3858 36.1248 38.0129 37.1373 39.0254C38.1498 40.0379 38.7769 41.4337 38.7769 42.9692V52.4883H41.9061C42.0915 51.8487 42.4374 51.2758 42.8957 50.8153C43.4916 50.2195 44.277 49.8153 45.152 49.7028C45.5062 48.5549 46.1937 47.5528 47.1042 46.8132C48.025 46.0653 49.1709 45.584 50.423 45.4902L50.4227 45.4908ZM41.7666 53.9032H15.4558C15.162 53.9032 14.8974 54.024 14.7037 54.2178C14.5078 54.4115 14.3891 54.6782 14.3891 54.972C14.3891 55.2658 14.5099 55.5324 14.7037 55.7241C14.8974 55.9179 15.1641 56.0387 15.4558 56.0387H42.6439C42.1544 55.447 41.8374 54.7095 41.7666 53.9032ZM45.6437 56.0387H56.1106C56.7897 56.0387 57.4085 55.7595 57.8564 55.3116C58.3043 54.8636 58.5835 54.2449 58.5835 53.5636C58.5835 52.8845 58.3043 52.2657 57.8564 51.8157C57.4085 51.3678 56.7897 51.0886 56.1106 51.0886H56.0481V51.0865C55.7189 51.0865 55.4251 50.8573 55.3564 50.524C55.1376 49.4761 54.5605 48.5615 53.7584 47.9094C52.973 47.2719 51.9709 46.8906 50.8771 46.8906C49.7834 46.8906 48.7813 47.2719 47.9959 47.9094C47.2063 48.5511 46.6333 49.449 46.4083 50.4782C46.3604 50.824 46.0646 51.0886 45.7062 51.0886H45.6437C44.9646 51.0886 44.3458 51.3678 43.8958 51.8157C43.4479 52.2636 43.1687 52.8824 43.1687 53.5636C43.1687 54.2428 43.4479 54.8616 43.8958 55.3115C44.3437 55.7595 44.9625 56.0387 45.6437 56.0387ZM19.6977 37.3861C19.306 37.3861 18.9894 37.7028 18.9894 38.0944V45.8631C18.9894 46.2548 19.3061 46.5714 19.6977 46.5714H24.5665C24.9582 46.5714 25.2749 46.2547 25.2749 45.8631V38.0944C25.2749 37.7028 24.9582 37.3861 24.5665 37.3861H19.6977ZM23.8582 38.8028H20.4061V45.1549H23.8582V38.8028ZM41.8169 37.3861C41.4252 37.3861 41.1086 37.7028 41.1086 38.0944V45.8631C41.1086 46.2548 41.4252 46.5714 41.8169 46.5714H46.6857C47.0774 46.5714 47.394 46.2547 47.394 45.8631V38.0944C47.394 37.7028 47.0774 37.3861 46.6857 37.3861H41.8169ZM45.9774 38.8028H42.5252V45.1549H45.9774V38.8028ZM33.1916 31.2944C33.7791 31.2944 34.3104 31.0569 34.6937 30.6714C35.0791 30.286 35.3166 29.7569 35.3166 29.1693C35.3166 28.5818 35.0791 28.0505 34.6937 27.6672C34.3083 27.2818 33.777 27.0443 33.1916 27.0443C32.6041 27.0443 32.0728 27.2818 31.6895 27.6672C31.3041 28.0527 31.0665 28.5839 31.0665 29.1693C31.0665 29.7569 31.304 30.2881 31.6895 30.6714C32.0728 31.0569 32.6041 31.2944 33.1916 31.2944ZM35.6958 31.6736C36.3374 31.0319 36.7333 30.1464 36.7333 29.1694C36.7333 28.1902 36.3375 27.3047 35.6958 26.6652C35.0541 26.0235 34.1687 25.6276 33.1916 25.6276C32.2145 25.6276 31.327 26.0235 30.6874 26.6652C30.0457 27.3068 29.6499 28.1923 29.6499 29.1694C29.6499 30.1464 30.0457 31.034 30.6874 31.6736C31.3291 32.3152 32.2145 32.7111 33.1916 32.7111C34.1707 32.7111 35.0562 32.3152 35.6958 31.6736ZM29.0269 52.4861H37.3582L37.3561 42.9692C37.3561 41.8234 36.8874 40.7837 36.1332 40.0275C35.3769 39.2712 34.3373 38.8025 33.1915 38.8025C32.0456 38.8025 31.006 39.2712 30.2498 40.0275C29.4936 40.7838 29.0247 41.8234 29.0247 42.9692V52.4861H29.0269ZM47.296 23.4313L50.4252 25.9459V19.8018H47.296V23.4313ZM33.7624 14.4914C33.5832 14.431 33.3937 14.406 33.2061 14.4122H33.1624C32.9728 14.406 32.7832 14.431 32.6061 14.4914C32.4374 14.5477 32.2728 14.6352 32.1207 14.7581L11.9993 30.9269C11.6618 31.1977 11.466 31.5831 11.4222 31.9832C11.3785 32.3873 11.4868 32.8061 11.7577 33.1436C12.0285 33.4811 12.4139 33.6769 12.8139 33.7207C13.2181 33.7644 13.6369 33.6561 13.9744 33.3853L32.7309 18.3141C32.9851 18.1037 33.3601 18.0912 33.6268 18.3058L52.3519 33.354C52.3769 33.3707 52.4019 33.3915 52.4248 33.4123C52.7561 33.6644 53.1623 33.7644 53.5519 33.7227C53.9394 33.6811 54.3124 33.4957 54.5832 33.179C54.5999 33.1561 54.6165 33.1353 54.6353 33.1144C54.8874 32.7832 54.9874 32.3769 54.9457 31.9873C54.9019 31.5852 54.7061 31.2019 54.3686 30.931L50.7311 28.008C50.704 27.9893 50.6769 27.9685 50.6519 27.9455L46.1852 24.3559C46.1581 24.3371 46.131 24.3163 46.106 24.2934L34.2477 14.7578C34.0956 14.6369 33.9312 14.5477 33.7624 14.4914Z" fill="#003F72"/>
</svg>
