<svg width="70" height="70" viewBox="0 0 70 70" fill="none" xmlns="http://www.w3.org/2000/svg">
<rect width="70" height="70" rx="15" fill="#B8C9D8"/>
<path fill-rule="evenodd" clip-rule="evenodd" d="M17.2932 38.3884C16.9432 38.8984 16.9032 39.5617 17.1915 40.11C17.4798 40.6567 18.0482 41 18.6665 41H33.6664V59.3333C33.6664 60.085 34.1698 60.7433 34.8948 60.9416C35.6214 61.1383 36.3881 60.8266 36.7698 60.1783L53.4364 31.845C53.7397 31.33 53.7431 30.6917 53.4464 30.1734C53.1497 29.6534 52.5981 29.3334 51.9997 29.3334H38.6664V12.6668C38.6664 11.9368 38.1914 11.2918 37.4948 11.0751C36.7964 10.8584 36.0398 11.1218 35.6264 11.7218L17.2932 38.3884ZM21.8348 37.6667L35.3331 18.0334V31C35.3331 31.92 36.0798 32.6667 36.9998 32.6667H49.0864L36.9998 53.2133V39.3334C36.9998 38.4134 36.2531 37.6667 35.3331 37.6667H21.8348Z" fill="#003F72"/>
</svg>
