<svg width="28" height="40" viewBox="0 0 28 40" fill="none" xmlns="http://www.w3.org/2000/svg">
<path fill-rule="evenodd" clip-rule="evenodd" d="M14.0892 3.21291C16.9042 3.21731 19.6028 4.32954 21.5948 6.30631C23.5869 8.28308 24.7102 10.9635 24.7191 13.7613L24.5008 15.9477V16.0813C23.6611 23.0912 20.4369 29.25 14.106 35.8594C7.77509 29.1833 4.55086 23.0912 3.71122 16.0813V15.9477L3.49291 13.778C3.49732 10.9831 4.61406 8.30339 6.59934 6.32397C8.58461 4.34454 11.2772 3.22613 14.0892 3.21291ZM17.821 19.329C16.7164 20.0626 15.4177 20.4542 14.0892 20.4542C12.3077 20.4542 10.5992 19.7508 9.33947 18.4987C8.07976 17.2467 7.37206 15.5486 7.37206 13.778C7.37206 12.4575 7.76602 11.1668 8.50411 10.0689C9.2422 8.97099 10.2913 8.11529 11.5187 7.60998C12.7461 7.10468 14.0967 6.97247 15.3997 7.23007C16.7027 7.48767 17.8995 8.12352 18.8389 9.0572C19.7784 9.99088 20.4181 11.1805 20.6773 12.4755C20.9365 13.7706 20.8034 15.1129 20.295 16.3328C19.7866 17.5527 18.9257 18.5954 17.821 19.329Z" fill="#F0AB00"/>
<path d="M14.0892 10.4399C14.7535 10.4399 15.4028 10.6357 15.9551 11.0025C16.5074 11.3692 16.9379 11.8906 17.1921 12.5005C17.4463 13.1105 17.5128 13.7817 17.3832 14.4292C17.2537 15.0767 16.9338 15.6715 16.4641 16.1384C15.9944 16.6052 15.3959 16.9231 14.7444 17.0519C14.0929 17.1807 13.4176 17.1146 12.8039 16.862C12.1902 16.6093 11.6657 16.1815 11.2967 15.6325C10.9276 15.0836 10.7306 14.4382 10.7306 13.778C10.7306 12.8927 11.0845 12.0436 11.7143 11.4176C12.3442 10.7916 13.1985 10.4399 14.0892 10.4399Z" fill="#F0AB00"/>
<path fill-rule="evenodd" clip-rule="evenodd" d="M0.335857 16.5653V16.2982L0 14.3955V13.9115C0 10.2219 1.47466 6.68349 4.09958 4.07458C6.7245 1.46567 10.2846 0 13.9968 0C17.709 0 21.2692 1.46567 23.8941 4.07458C26.519 6.68349 27.9937 10.2219 27.9937 13.9115C28.0021 14.0672 28.0021 14.2232 27.9937 14.3788C27.9816 15.0674 27.9142 15.7539 27.7922 16.4318V16.5653C26.8014 24.7937 22.939 31.8704 15.2479 39.5147C14.9333 39.8255 14.5077 40 14.064 40C13.6204 40 13.1948 39.8255 12.8801 39.5147C5.18899 31.8704 1.32664 24.7937 0.335857 16.5653ZM21.5948 6.30631C19.6028 4.32954 16.9042 3.21731 14.0892 3.21291C11.2772 3.22613 8.58461 4.34454 6.59934 6.32397C4.61406 8.30339 3.49732 10.9831 3.49291 13.778L3.71122 15.9477V16.0813C4.55086 23.0912 7.77509 29.1833 14.106 35.8594C20.4369 29.25 23.6611 23.0912 24.5008 16.0813V15.9477L24.7191 13.7613C24.7102 10.9635 23.5869 8.28308 21.5948 6.30631Z" fill="#F0AB00"/>
</svg>
