<svg width="704" height="157" viewBox="0 0 704 157" fill="none" xmlns="http://www.w3.org/2000/svg">
<path d="M321.215 23.3759C318.858 23.3759 318.529 25.3022 318.529 27.1735V52.4904L296.709 23.5961L296.544 23.431H285.031V25.4673H285.47C286.347 25.4673 287.005 26.0177 287.498 27.1184C287.827 27.8889 287.937 29.1548 287.937 31.4663V68.5061C287.937 71.4231 289.143 72.9091 291.5 72.9091H296.928V72.4138C296.928 68.7263 296.928 68.5612 296.928 64.8737C296.928 61.3513 296.928 54.6919 296.928 38.7312L322.969 72.744L323.079 72.9091H327.465V23.3759H321.215ZM271.489 23.3759L263.266 59.2049L254.11 23.7061L254.001 23.3759H248.134L237.992 59.26L230.7 27.2285C230.097 24.5317 228.672 23.3759 226.15 23.3759H217.817V25.3573H218.255C220.229 25.3573 220.942 27.1184 221.216 28.1641L230.974 66.745C232.071 71.0929 233.222 72.6339 237.444 72.6339H242.104L250.492 43.8496L256.248 66.4147C257.674 71.6983 259.264 72.6339 263.101 72.6339H267.761L280.755 23.3759H271.489ZM109.045 29.7602C113.322 29.7602 118.64 31.2462 119.626 35.5391L119.736 35.9243H121.49V24.8619L121.216 24.7518C118.969 23.8713 114.363 22.3853 108.552 22.3853C100.657 22.3853 93.9139 25.027 89.199 29.9803C84.7582 34.6034 82.346 40.9877 82.346 48.0324C82.346 55.0221 84.7582 61.3514 89.1441 65.8644C93.859 70.7076 100.657 73.2944 108.771 73.2944C112.006 73.2944 116.83 72.9091 121.271 71.1479L121.545 71.0378V62.6172L120.942 62.8374C120.668 62.9474 120.339 63.0575 119.955 63.2226C118.036 63.9931 114.857 65.369 110.58 65.369C99.3415 65.369 92.1047 58.3794 92.1047 47.5371C91.995 37.0251 99.0125 29.7602 109.045 29.7602ZM210.032 29.5951C205.591 24.6418 199.45 22 192.214 22C184.922 22 178.672 24.7518 174.176 29.8703C170.01 34.6585 167.762 41.1528 167.762 48.1975C167.762 55.4074 170.119 61.9568 174.341 66.5799C178.782 71.4231 185.032 74.0098 192.433 74.0098C206.632 74.0098 216.556 63.2226 216.556 47.8123C216.501 40.7125 214.198 34.2732 210.032 29.5951ZM192.214 30.2005C200.821 30.2005 206.578 37.4654 206.578 48.1975C206.578 56.7833 202.137 66.0295 192.378 66.0295C185.141 66.0295 177.85 60.4708 177.85 48.0324C177.85 37.3553 183.661 30.2005 192.214 30.2005ZM167.104 71.7533C163.815 69.4418 156.03 56.8934 153.837 52.1052C159.374 48.6378 161.457 44.6752 161.457 37.6855C161.457 31.1912 157.565 25.7975 151.753 24.1464C149.835 23.5961 147.751 23.3759 145.558 23.3759H126.644V25.2472L127.028 25.3022C129.33 25.7975 129.769 27.4486 129.769 30.0904V68.6712C129.769 71.4231 131.085 72.8541 133.552 72.8541H139.199V72.3587C139.199 68.231 139.199 63.9931 139.199 59.9204C139.199 57.9941 139.199 56.0678 139.199 54.1415H144.955C145.284 54.802 145.723 55.5725 146.161 56.5081C148.025 60.1956 150.602 65.259 153.672 68.7813C156.852 72.3587 160.141 72.6339 164.802 72.6339H168.42L167.104 71.7533ZM152.028 38.6762C152.028 42.6388 150.328 46.9317 146.6 46.9317H139.089V30.5858H145.503C149.451 30.5858 152.028 33.7229 152.028 38.6762ZM205.975 91.5115V83.7514H164.911V94.8688H166.72L166.775 94.4835C167.104 92.4472 167.981 91.5666 169.626 91.5666H180.92V129.432C180.92 132.129 182.236 133.395 184.867 133.395H193.584V131.413L193.2 131.358C190.898 131.028 190.295 130.478 190.295 127.451V91.5115H205.975ZM286.456 91.5115V83.7514H245.393V94.8688H247.202L247.257 94.4835C247.586 92.4472 248.463 91.5666 250.108 91.5666H261.402V129.432C261.402 132.129 262.718 133.395 265.349 133.395H274.066V131.413L273.682 131.358C271.38 131.028 270.777 130.478 270.777 127.451V91.5115H286.456ZM120.449 122.607L120.339 122.828C119.133 124.974 118.311 125.414 115.131 125.414H97.4226V111.215H117.817V103.455H97.4226V91.4565H120.668V83.7514H84.813V85.6226L85.1968 85.6776C87.0608 86.0079 87.938 87.3838 87.938 89.8604V127.836C87.938 130.313 88.4314 133.174 92.4336 133.174H119.626L122.422 122.552H120.449V122.607ZM326.917 122.607L326.807 122.828C325.601 124.974 324.779 125.414 321.599 125.414H303.891V111.215H324.285V103.455H303.891V91.4565H327.246V83.7514H291.391V85.6226L291.774 85.6776C293.638 86.0079 294.516 87.3838 294.516 89.8604V127.836C294.516 130.313 295.009 133.174 299.011 133.174H326.204L329 122.552H326.917V122.607ZM251.259 131.083C249.669 130.918 248.354 129.762 247.696 127.946L229.768 83.7514H220.887L200.602 133.229H207.29C210.032 133.229 210.909 131.413 211.567 129.432L214.911 121.176H235.031L238.321 129.432C239.198 132.019 240.185 133.229 243.365 133.229H251.698V131.193L251.259 131.083ZM232.455 114.297H217.597L225.053 94.7587L232.455 114.297ZM150.547 104.61L146.929 103.069C146.49 102.904 146.052 102.684 145.558 102.519C142.159 101.143 137.883 99.4369 137.938 95.9695C137.993 92.227 141.227 90.0806 146.764 90.1907C148.957 90.2457 151.205 90.686 153.508 91.4565C156.03 92.3371 157.839 93.8781 158.497 95.7494L158.606 96.0246L160.306 96.0796L160.416 85.8428L160.087 85.6776C158.277 84.9071 153.563 82.9258 147.093 82.8157C141.282 82.7057 136.403 84.1917 133.004 87.0536C129.988 89.5853 128.289 93.0526 128.234 96.7951C128.124 104.665 134.648 108.353 140.35 110.719L144.297 112.315C147.751 113.691 152.905 115.783 152.85 119.856C152.795 123.048 150.273 126.515 143.42 126.515C143.31 126.515 143.146 126.515 143.036 126.515C139.089 126.46 133.278 124.699 129.221 122.442L128.563 122.057V127.12C128.508 129.872 129.166 131.358 133.168 132.514C136.238 133.395 139.802 133.945 142.762 134C142.982 134 143.201 134 143.42 134C155.043 134 162.663 128.331 162.773 119.58C162.883 110.554 157.071 107.362 150.547 104.61ZM22.8617 28.7145V24.0364H0V30.5858H1.09648L1.15131 30.3656C1.31578 29.2098 1.8092 28.7145 2.74121 28.7145H8.49775V49.9037C8.49775 51.4447 9.26529 52.2152 10.7455 52.2152H16.2828V50.8943L16.0635 50.8393C14.7477 50.6192 14.4188 50.344 14.4188 48.6378V28.7145H22.8617ZM71.8745 45.831L71.8197 45.9961C71.1618 47.2619 70.6684 47.4821 68.8592 47.4821H59.265V39.887H70.3394V35.0988H59.265V28.8246H72.039V24.0914H51.5896V25.3022L51.8089 25.3573C52.8505 25.5224 53.3439 26.2929 53.3439 27.7238V49.2432C53.3439 50.6742 53.6181 52.3253 55.9207 52.3253H71.4359L73.0807 45.941H71.8745V45.831ZM40.4054 24.0364V25.2472L40.6247 25.3022C41.6664 25.4673 42.1598 26.2378 42.1598 27.6688V35.0988H32.1818V24.0364H24.4516V25.2472L24.6709 25.3022C25.7125 25.4673 26.206 26.2378 26.206 27.6688V52.2152H32.127V39.887H42.1598V52.2152H48.0808V24.0914H40.4054V24.0364ZM69.243 97.5106C69.243 97.3455 69.243 97.1803 69.243 97.0152C69.243 96.8501 69.243 96.685 69.243 96.5199C69.2978 96.5199 69.4074 96.5199 69.4623 96.5199C70.5039 96.5199 71.3811 95.6393 71.3811 94.5386C71.3811 93.4378 70.5039 92.5573 69.4623 92.5573C69.1881 92.5573 68.914 92.6123 68.6947 92.7224C68.5851 92.3371 68.4754 91.8968 68.3109 91.4015C69.1881 91.2364 69.846 90.4108 69.846 89.4201C69.846 88.3194 68.9688 87.4388 67.9272 87.4388C67.4338 87.4388 66.9952 87.659 66.6114 87.9892C66.3373 87.6039 66.0632 87.2737 65.7342 86.8884C66.1728 86.5032 66.4469 85.9528 66.4469 85.3474C66.4469 84.2467 65.5697 83.3661 64.5281 83.3661C63.7605 83.3661 63.1026 83.8614 62.7737 84.5769C62.3351 84.3017 61.8417 84.0816 61.4031 83.8614C61.6224 83.5312 61.6772 83.1459 61.6772 82.8157C61.6772 81.715 60.8 80.8344 59.7584 80.8344C58.7167 80.8344 57.8395 81.715 57.8395 82.8157C57.8395 82.8708 57.8395 82.9808 57.8395 83.0359C57.2365 82.9808 56.7979 82.9808 56.1948 83.0359C56.2496 82.8708 56.2496 82.7057 56.2496 82.5405C56.2496 81.4398 55.3724 80.5592 54.3308 80.5592C53.2891 80.5592 52.4119 81.4398 52.4119 82.5405C52.4119 83.0359 52.5764 83.4762 52.8505 83.8064C52.4119 83.9715 51.9185 84.1916 51.4799 84.4668C51.3154 83.5312 50.5479 82.8157 49.6159 82.8157C48.5742 82.8157 47.6971 83.6963 47.6971 84.7971C47.6971 85.4575 48.026 86.1179 48.5742 86.4482C47.6422 87.2187 46.6554 88.1543 45.6686 89.2L45.9427 89.5853C49.6707 87.3838 52.6861 86.0079 56.3044 86.0079C59.7584 86.0079 62.0062 87.5489 63.2671 88.8147C65.0215 90.5759 66.118 93.4929 66.118 96.63C66.118 98.5563 65.789 100.923 65.0215 103.95H60.0873L61.2935 109.619L57.4009 107.968L57.6751 108.518C59.0457 111.435 58.4974 114.847 57.6751 116.884L57.4558 117.434L59.6487 116.498C59.4843 118.204 58.4426 120.956 56.1948 120.956C54.6049 120.956 53.4536 119.856 52.7957 117.599C52.5764 116.994 52.5216 116.333 52.5216 115.728C52.5216 114.847 52.7409 114.187 53.1246 114.022C53.1795 113.967 53.2891 113.967 53.3988 113.967C54.1115 113.967 55.1531 115.232 55.4821 116.884L55.5917 117.434L55.8659 116.939C56.1948 116.388 56.9075 114.957 57.1268 113.416C57.1816 113.031 57.2913 112.371 57.2913 111.82C57.2913 110.609 56.9075 109.509 56.2496 108.793C55.7562 108.298 55.208 108.023 54.6049 108.023C53.7277 108.023 53.015 108.463 52.4119 109.399C52.3571 109.509 52.3023 109.564 52.2475 109.619C52.3023 109.509 52.3571 109.343 52.4119 109.178C52.9053 107.968 53.2343 106.922 53.2343 105.546C53.2343 104.005 52.5216 102.409 51.5347 100.207C51.3703 99.8221 51.2058 99.4369 51.0413 99.0516L50.4931 97.7307L49.9448 99.0516C49.7804 99.4369 49.6159 99.8221 49.4514 100.207C48.4646 102.409 47.7519 104.005 47.7519 105.546C47.7519 106.867 48.0808 107.968 48.5742 109.178C48.6291 109.399 48.7387 109.509 48.7387 109.619C48.6839 109.564 48.6291 109.509 48.5742 109.399C47.9712 108.518 47.2585 108.023 46.3813 108.023C45.7782 108.023 45.1751 108.298 44.7365 108.793C44.0787 109.509 43.6949 110.609 43.6949 111.82C43.6949 112.371 43.7497 112.976 43.8594 113.416C44.1335 115.012 44.7914 116.388 45.1203 116.939L45.3944 117.434L45.5041 116.884C45.833 115.232 46.8747 113.967 47.5874 113.967C47.697 113.967 47.7519 113.967 47.8615 114.022C48.2453 114.187 48.4646 114.847 48.4646 115.728C48.4646 116.333 48.3549 116.939 48.1905 117.599C47.5874 119.58 45.8879 120.956 43.969 120.956C42.9273 120.956 40.4603 120.626 39.4186 117.269C39.2541 116.829 39.1993 116.333 39.1445 115.838L43.4208 117.654L43.2015 117.104C42.3243 115.067 41.8309 111.655 43.2015 108.738L43.4756 108.188L39.8572 109.729L42.5436 104.445H40.0765V94.3735C41.5019 93.3278 42.3791 91.6216 42.3791 89.8054C42.3791 88.4845 41.9953 87.6039 41.4471 86.7233C41.2826 86.4482 40.8989 86.0079 40.3506 85.4025C39.9668 84.9622 39.5282 84.4668 39.4186 83.9715C39.4186 83.9715 39.4186 83.8614 39.4186 83.8064L45.4493 86.1179V75.771L40.0765 77.8074L42.2695 71.2029H32.0173L34.2103 77.8074L28.8375 75.771V86.1179L34.8682 83.8064C34.8682 83.9165 34.8682 83.9715 34.8682 83.9715C34.7585 84.4118 34.3748 84.9622 33.9362 85.4025C33.3331 86.0629 33.0042 86.5032 32.8397 86.7233C32.2915 87.6039 31.9077 88.4845 31.9077 89.8054C31.9077 91.6767 32.7849 93.3828 34.2103 94.3735V104.555H31.6884L34.3748 109.839L30.7564 108.298L31.0305 108.848C32.4011 111.765 31.8529 115.177 31.0305 117.214L30.8112 117.764L35.0875 115.948C35.0327 116.443 34.923 116.939 34.8134 117.379C33.7717 120.681 31.3046 121.066 30.263 121.066C28.3441 121.066 26.6446 119.745 26.0415 117.709C25.8222 117.104 25.7674 116.443 25.7674 115.838C25.7674 114.957 25.9867 114.297 26.3704 114.132C26.4253 114.077 26.5349 114.077 26.6446 114.077C27.3573 114.077 28.3989 115.343 28.7279 116.994L28.8375 117.544L29.1116 117.049C29.4406 116.498 30.1533 115.067 30.3726 113.526C30.4274 113.141 30.5371 112.481 30.5371 111.93C30.5371 110.719 30.1533 109.619 29.4954 108.903C29.002 108.408 28.4538 108.133 27.8507 108.133C26.9735 108.133 26.2608 108.573 25.6577 109.509C25.6029 109.619 25.5481 109.674 25.4933 109.729C25.5481 109.619 25.6029 109.454 25.6577 109.288C26.1511 108.078 26.4801 107.032 26.4801 105.656C26.4801 104.115 25.7674 102.519 24.7805 100.317C24.6161 99.9322 24.4516 99.602 24.2871 99.1617L23.7389 97.8408L23.1906 99.1617C23.0262 99.5469 22.8617 99.9322 22.6972 100.317C21.7104 102.519 20.9977 104.115 20.9977 105.656C20.9977 106.977 21.3266 108.078 21.82 109.288C21.8749 109.509 21.9845 109.619 21.9845 109.729C21.9297 109.674 21.8749 109.619 21.82 109.509C21.217 108.628 20.5043 108.133 19.6271 108.133C19.024 108.133 18.4209 108.408 17.9823 108.903C17.3244 109.619 16.9407 110.719 16.9407 111.93C16.9407 112.481 16.9955 113.086 17.1051 113.526C17.3793 115.122 18.0372 116.498 18.3661 117.049L18.6402 117.544L18.7499 116.994C19.0788 115.343 20.1205 114.077 20.8332 114.077C20.9428 114.077 20.9977 114.077 21.1073 114.132C21.4911 114.297 21.7104 114.957 21.7104 115.838C21.7104 116.443 21.6007 117.049 21.4363 117.709C20.7784 119.911 19.6271 121.066 18.0372 121.066C15.7894 121.066 14.7477 118.314 14.5832 116.608L16.7762 117.544L16.5569 116.994C15.6797 114.957 15.1863 111.545 16.5569 108.628L16.831 108.078L12.9385 109.729L14.1446 104.06H9.21047C8.49775 101.088 8.11398 98.6663 8.11398 96.74C8.11398 93.6029 9.15564 90.686 10.9648 88.9248C12.2806 87.659 14.5284 86.1179 17.9275 86.1179C21.5459 86.1179 24.5612 87.4939 28.2893 89.6953L28.5634 89.3101C27.5766 88.2644 26.5897 87.3287 25.6577 86.5582C26.206 86.173 26.5349 85.5676 26.5349 84.9071C26.5349 83.8064 25.6577 82.9258 24.6161 82.9258C23.6841 82.9258 22.9165 83.6413 22.752 84.5769C22.3134 84.3017 21.82 84.0816 21.3814 83.9165C21.6556 83.5862 21.82 83.0909 21.82 82.6506C21.82 81.5499 20.9428 80.6693 19.9012 80.6693C18.8595 80.6693 17.9823 81.5499 17.9823 82.6506C17.9823 82.8157 17.9823 82.9808 18.0372 83.1459C17.4341 83.0909 17.0503 83.0909 16.3924 83.1459C16.3924 83.0909 16.3924 82.9808 16.3924 82.9258C16.3924 81.8251 15.5152 80.9445 14.4736 80.9445C13.4319 80.9445 12.5547 81.8251 12.5547 82.9258C12.5547 83.3111 12.6644 83.6963 12.8289 83.9715C12.3903 84.1916 11.8969 84.4118 11.4583 84.687C11.1841 83.9715 10.4714 83.4762 9.70388 83.4762C8.66222 83.4762 7.78504 84.3567 7.78504 85.4575C7.78504 86.0629 8.05916 86.6133 8.49775 86.9985C8.16881 87.3287 7.89468 87.714 7.62056 88.0993C7.29162 87.769 6.7982 87.5489 6.30478 87.5489C5.26312 87.5489 4.38594 88.4295 4.38594 89.5302C4.38594 90.4659 5.04383 91.2914 5.92101 91.5115C5.75654 92.0069 5.64689 92.4472 5.53724 92.8324C5.31795 92.7224 5.04383 92.6673 4.76971 92.6673C3.72805 92.6673 2.85086 93.5479 2.85086 94.6486C2.85086 95.7494 3.72805 96.63 4.76971 96.63C4.82453 96.63 4.93418 96.63 4.989 96.63C4.989 96.7951 4.989 96.9602 4.989 97.1253C4.989 97.2904 4.989 97.4555 4.989 97.6206C3.89252 97.5656 3.01533 98.5012 3.01533 99.602C3.01533 100.703 3.89252 101.638 4.93418 101.638C5.15347 101.638 5.37277 101.583 5.59207 101.528C5.70172 101.914 5.75654 102.299 5.86619 102.684C4.87935 102.739 4.05699 103.62 4.05699 104.665C4.05699 105.766 4.93418 106.647 5.97584 106.647C6.30478 106.647 6.5789 106.592 6.85303 106.427C6.96267 106.757 7.0175 107.032 7.12715 107.362C6.19514 107.527 5.48242 108.353 5.48242 109.343C5.48242 110.444 6.35961 111.325 7.40127 111.325C7.73021 111.325 8.00433 111.27 8.27845 111.105C9.04599 113.581 9.86836 116.058 10.6907 118.48L11.2938 120.241C12.8289 124.754 13.9802 128.386 14.6929 131.193L15.0218 132.349H59.4294L59.7584 131.193C60.4711 128.386 61.6224 124.754 63.1575 120.241L63.7605 118.48C64.5829 116.058 65.4053 113.581 66.1728 111.105C66.4469 111.27 66.721 111.325 67.05 111.325C68.0917 111.325 68.9688 110.444 68.9688 109.343C68.9688 108.353 68.2561 107.527 67.3241 107.362C67.4338 107.032 67.4886 106.702 67.5982 106.427C67.8724 106.592 68.1465 106.647 68.4754 106.647C69.5171 106.647 70.3943 105.766 70.3943 104.665C70.3943 103.565 69.5719 102.739 68.5851 102.684C68.6947 102.299 68.7495 101.914 68.8592 101.528C69.0785 101.583 69.2978 101.638 69.5171 101.638C70.5587 101.638 71.4359 100.758 71.4359 99.602C71.2166 98.3912 70.2846 97.4555 69.243 97.5106Z" fill="white"/>
<rect x="358" width="3" height="157" fill="white" fill-opacity="0.5"/>
<path d="M643.08 114.784C642.227 114.571 641.224 114.357 640.072 114.144C638.92 113.888 637.683 113.76 636.36 113.76C635.763 113.76 635.038 113.824 634.184 113.952C633.374 114.037 632.755 114.144 632.328 114.272V140H622.792V108.128C624.499 107.531 626.504 106.976 628.808 106.464C631.155 105.909 633.758 105.632 636.616 105.632C637.128 105.632 637.747 105.675 638.472 105.76C639.198 105.803 639.923 105.888 640.648 106.016C641.374 106.101 642.099 106.229 642.824 106.4C643.55 106.528 644.168 106.699 644.68 106.912L643.08 114.784Z" fill="white"/>
<path d="M583.818 123.424C583.818 120.437 584.265 117.835 585.161 115.616C586.1 113.355 587.316 111.477 588.809 109.984C590.303 108.491 592.01 107.36 593.93 106.592C595.892 105.824 597.897 105.44 599.945 105.44C604.724 105.44 608.5 106.912 611.273 109.856C614.047 112.757 615.434 117.045 615.434 122.72C615.434 123.275 615.412 123.893 615.37 124.576C615.327 125.216 615.284 125.792 615.242 126.304H593.609C593.823 128.267 594.74 129.824 596.361 130.976C597.983 132.128 600.159 132.704 602.889 132.704C604.639 132.704 606.346 132.555 608.01 132.256C609.716 131.915 611.103 131.509 612.169 131.04L613.449 138.784C612.937 139.04 612.255 139.296 611.402 139.552C610.548 139.808 609.588 140.021 608.521 140.192C607.497 140.405 606.388 140.576 605.193 140.704C603.999 140.832 602.804 140.896 601.609 140.896C598.58 140.896 595.935 140.448 593.674 139.552C591.455 138.656 589.599 137.44 588.105 135.904C586.655 134.325 585.567 132.469 584.842 130.336C584.159 128.203 583.818 125.899 583.818 123.424ZM606.217 119.776C606.175 118.965 606.026 118.176 605.77 117.408C605.556 116.64 605.194 115.957 604.682 115.36C604.212 114.763 603.594 114.272 602.826 113.888C602.1 113.504 601.183 113.312 600.074 113.312C599.007 113.312 598.09 113.504 597.322 113.888C596.554 114.229 595.914 114.699 595.402 115.296C594.89 115.893 594.484 116.597 594.186 117.408C593.93 118.176 593.737 118.965 593.609 119.776H606.217Z" fill="white"/>
<path d="M579.33 114.784C578.477 114.571 577.474 114.357 576.322 114.144C575.17 113.888 573.933 113.76 572.61 113.76C572.013 113.76 571.288 113.824 570.434 113.952C569.624 114.037 569.005 114.144 568.578 114.272V140H559.042V108.128C560.749 107.531 562.754 106.976 565.058 106.464C567.405 105.909 570.008 105.632 572.866 105.632C573.378 105.632 573.997 105.675 574.722 105.76C575.448 105.803 576.173 105.888 576.898 106.016C577.624 106.101 578.349 106.229 579.074 106.4C579.8 106.528 580.418 106.699 580.93 106.912L579.33 114.784Z" fill="white"/>
<path d="M551.656 123.104C551.656 125.749 551.272 128.181 550.504 130.4C549.736 132.576 548.626 134.453 547.176 136.032C545.725 137.568 543.976 138.763 541.928 139.616C539.922 140.469 537.661 140.896 535.143 140.896C532.669 140.896 530.407 140.469 528.359 139.616C526.354 138.763 524.626 137.568 523.176 136.032C521.725 134.453 520.594 132.576 519.783 130.4C518.973 128.181 518.568 125.749 518.568 123.104C518.568 120.459 518.973 118.048 519.783 115.872C520.637 113.696 521.789 111.84 523.24 110.304C524.733 108.768 526.482 107.573 528.488 106.72C530.536 105.867 532.754 105.44 535.143 105.44C537.575 105.44 539.794 105.867 541.799 106.72C543.847 107.573 545.597 108.768 547.048 110.304C548.498 111.84 549.629 113.696 550.439 115.872C551.25 118.048 551.656 120.459 551.656 123.104ZM541.928 123.104C541.928 120.16 541.33 117.856 540.135 116.192C538.983 114.485 537.319 113.632 535.143 113.632C532.967 113.632 531.282 114.485 530.087 116.192C528.893 117.856 528.296 120.16 528.296 123.104C528.296 126.048 528.893 128.395 530.087 130.144C531.282 131.851 532.967 132.704 535.143 132.704C537.319 132.704 538.983 131.851 540.135 130.144C541.33 128.395 541.928 126.048 541.928 123.104Z" fill="white"/>
<path d="M513.358 140.64C510.584 140.597 508.323 140.299 506.574 139.744C504.867 139.189 503.502 138.421 502.478 137.44C501.496 136.416 500.814 135.2 500.43 133.792C500.088 132.341 499.918 130.72 499.918 128.928V91.872L509.454 90.336V127.008C509.454 127.861 509.518 128.629 509.646 129.312C509.774 129.995 510.008 130.571 510.35 131.04C510.734 131.509 511.267 131.893 511.95 132.192C512.632 132.491 513.55 132.683 514.702 132.768L513.358 140.64Z" fill="white"/>
<path d="M482.861 123.424C482.861 120.48 482.199 118.133 480.877 116.384C479.554 114.592 477.591 113.696 474.989 113.696C474.135 113.696 473.346 113.739 472.621 113.824C471.895 113.867 471.298 113.931 470.829 114.016V131.232C471.426 131.616 472.194 131.936 473.133 132.192C474.114 132.448 475.095 132.576 476.077 132.576C480.599 132.576 482.861 129.525 482.861 123.424ZM492.589 123.168C492.589 125.771 492.269 128.139 491.629 130.272C490.989 132.405 490.05 134.24 488.813 135.776C487.575 137.312 486.039 138.507 484.205 139.36C482.37 140.213 480.258 140.64 477.869 140.64C476.546 140.64 475.309 140.512 474.157 140.256C473.005 140 471.895 139.637 470.829 139.168V151.84H461.293V107.488C462.146 107.232 463.127 106.997 464.237 106.784C465.346 106.528 466.498 106.315 467.693 106.144C468.93 105.973 470.167 105.845 471.405 105.76C472.685 105.632 473.901 105.568 475.053 105.568C477.826 105.568 480.301 105.995 482.477 106.848C484.653 107.659 486.487 108.832 487.981 110.368C489.474 111.861 490.605 113.696 491.373 115.872C492.183 118.048 492.589 120.48 492.589 123.168Z" fill="white"/>
<path d="M439.231 116.576L445.887 106.336H455.743L444.223 122.528C446.783 125.728 449.108 128.843 451.199 131.872C453.29 134.901 454.954 137.611 456.191 140H445.951C445.61 139.36 445.183 138.571 444.671 137.632C444.159 136.651 443.583 135.648 442.943 134.624C442.303 133.557 441.62 132.512 440.895 131.488C440.212 130.421 439.53 129.461 438.847 128.608C438.207 129.419 437.546 130.315 436.863 131.296C436.223 132.277 435.604 133.28 435.007 134.304C434.41 135.285 433.812 136.267 433.215 137.248C432.66 138.229 432.17 139.147 431.743 140H422.015C422.527 138.933 423.231 137.675 424.127 136.224C425.023 134.773 425.983 133.28 427.007 131.744C428.074 130.165 429.183 128.608 430.335 127.072C431.487 125.493 432.618 124.021 433.727 122.656C431.807 119.968 429.887 117.259 427.967 114.528C426.047 111.755 424.148 109.024 422.271 106.336H432.575L439.231 116.576Z" fill="white"/>
<path d="M386.88 123.424C386.88 120.437 387.328 117.835 388.224 115.616C389.163 113.355 390.379 111.477 391.872 109.984C393.365 108.491 395.072 107.36 396.992 106.592C398.955 105.824 400.96 105.44 403.008 105.44C407.787 105.44 411.563 106.912 414.336 109.856C417.109 112.757 418.496 117.045 418.496 122.72C418.496 123.275 418.475 123.893 418.432 124.576C418.389 125.216 418.347 125.792 418.304 126.304H396.672C396.885 128.267 397.803 129.824 399.424 130.976C401.045 132.128 403.221 132.704 405.952 132.704C407.701 132.704 409.408 132.555 411.072 132.256C412.779 131.915 414.165 131.509 415.232 131.04L416.512 138.784C416 139.04 415.317 139.296 414.464 139.552C413.611 139.808 412.651 140.021 411.584 140.192C410.56 140.405 409.451 140.576 408.256 140.704C407.061 140.832 405.867 140.896 404.672 140.896C401.643 140.896 398.997 140.448 396.736 139.552C394.517 138.656 392.661 137.44 391.168 135.904C389.717 134.325 388.629 132.469 387.904 130.336C387.221 128.203 386.88 125.899 386.88 123.424ZM409.28 119.776C409.237 118.965 409.088 118.176 408.832 117.408C408.619 116.64 408.256 115.957 407.744 115.36C407.275 114.763 406.656 114.272 405.888 113.888C405.163 113.504 404.245 113.312 403.136 113.312C402.069 113.312 401.152 113.504 400.384 113.888C399.616 114.229 398.976 114.699 398.464 115.296C397.952 115.893 397.547 116.597 397.248 117.408C396.992 118.176 396.8 118.965 396.672 119.776H409.28Z" fill="white"/>
<path d="M675.413 50.144C675.413 47.072 675.008 44.896 674.197 43.616C673.429 42.336 672.085 41.696 670.165 41.696C669.568 41.696 668.949 41.7387 668.309 41.824C667.669 41.8667 667.051 41.9307 666.453 42.016V68H656.917V35.488C657.728 35.2747 658.667 35.0613 659.733 34.848C660.843 34.592 661.995 34.3787 663.189 34.208C664.427 33.9947 665.685 33.8453 666.965 33.76C668.245 33.632 669.504 33.568 670.741 33.568C673.173 33.568 675.136 33.888 676.629 34.528C678.165 35.1253 679.424 35.8507 680.405 36.704C681.771 35.7227 683.328 34.9547 685.077 34.4C686.869 33.8453 688.512 33.568 690.005 33.568C692.693 33.568 694.891 33.952 696.597 34.72C698.347 35.4453 699.733 36.4907 700.757 37.856C701.781 39.2213 702.485 40.8427 702.869 42.72C703.253 44.5973 703.445 46.688 703.445 48.992V68H693.909V50.144C693.909 47.072 693.504 44.896 692.693 43.616C691.925 42.336 690.581 41.696 688.661 41.696C688.149 41.696 687.424 41.824 686.485 42.08C685.589 42.336 684.843 42.656 684.245 43.04C684.544 44.0213 684.736 45.0667 684.821 46.176C684.907 47.2427 684.949 48.3947 684.949 49.632V68H675.413V50.144Z" fill="white"/>
<path d="M650.205 42.784C649.352 42.5707 648.349 42.3573 647.197 42.144C646.045 41.888 644.808 41.76 643.485 41.76C642.888 41.76 642.163 41.824 641.309 41.952C640.499 42.0374 639.88 42.144 639.453 42.272V68H629.917V36.128C631.624 35.5307 633.629 34.976 635.933 34.464C638.28 33.9094 640.883 33.632 643.742 33.632C644.254 33.632 644.872 33.6747 645.597 33.76C646.323 33.8027 647.048 33.888 647.773 34.016C648.499 34.1014 649.224 34.2293 649.949 34.4C650.675 34.528 651.293 34.6987 651.805 34.912L650.205 42.784Z" fill="white"/>
<path d="M607.406 61.344C608.345 61.344 609.241 61.3227 610.094 61.28C610.948 61.2373 611.63 61.1733 612.142 61.088V53.856C611.758 53.7707 611.182 53.6853 610.414 53.6C609.646 53.5147 608.942 53.472 608.302 53.472C607.406 53.472 606.553 53.536 605.742 53.664C604.974 53.7493 604.292 53.9413 603.694 54.24C603.097 54.5387 602.628 54.944 602.286 55.456C601.945 55.968 601.774 56.608 601.774 57.376C601.774 58.8693 602.265 59.9147 603.246 60.512C604.27 61.0667 605.657 61.344 607.406 61.344ZM606.638 33.44C609.454 33.44 611.801 33.76 613.678 34.4C615.556 35.04 617.049 35.9573 618.158 37.152C619.31 38.3467 620.121 39.7973 620.59 41.504C621.06 43.2107 621.294 45.1093 621.294 47.2V67.04C619.929 67.3387 618.03 67.68 615.598 68.064C613.166 68.4907 610.222 68.704 606.766 68.704C604.59 68.704 602.606 68.512 600.814 68.128C599.065 67.744 597.55 67.1253 596.27 66.272C594.99 65.376 594.009 64.224 593.326 62.816C592.644 61.408 592.302 59.68 592.302 57.632C592.302 55.6693 592.686 54.0053 593.454 52.64C594.265 51.2747 595.332 50.1867 596.654 49.376C597.977 48.5653 599.492 47.9893 601.198 47.648C602.905 47.264 604.676 47.072 606.51 47.072C607.748 47.072 608.836 47.136 609.774 47.264C610.756 47.3493 611.545 47.4773 612.142 47.648V46.752C612.142 45.1307 611.652 43.8293 610.67 42.848C609.689 41.8667 607.982 41.376 605.55 41.376C603.929 41.376 602.329 41.504 600.75 41.76C599.172 41.9733 597.806 42.2933 596.654 42.72L595.438 35.04C595.993 34.8693 596.676 34.6987 597.486 34.528C598.34 34.3147 599.257 34.144 600.238 34.016C601.22 33.8453 602.244 33.7173 603.31 33.632C604.42 33.504 605.529 33.44 606.638 33.44Z" fill="white"/>
<path d="M559.995 68V23.648H589.691V32.032H569.979V41.312H587.515V49.696H569.979V68H559.995Z" fill="white"/>
<path d="M513.483 50.912C513.483 53.856 514.144 56.224 515.467 58.016C516.79 59.808 518.752 60.704 521.355 60.704C522.208 60.704 522.998 60.6827 523.723 60.64C524.448 60.5547 525.046 60.4693 525.515 60.384V43.04C524.918 42.656 524.128 42.336 523.147 42.08C522.208 41.824 521.248 41.696 520.267 41.696C515.744 41.696 513.483 44.768 513.483 50.912ZM535.051 66.912C534.198 67.168 533.216 67.424 532.107 67.68C530.998 67.8933 529.824 68.0853 528.587 68.256C527.392 68.4267 526.155 68.5547 524.875 68.64C523.638 68.768 522.443 68.832 521.291 68.832C518.518 68.832 516.043 68.4267 513.867 67.616C511.691 66.8053 509.856 65.6533 508.363 64.16C506.87 62.624 505.718 60.7893 504.907 58.656C504.139 56.48 503.755 54.048 503.755 51.36C503.755 48.6293 504.096 46.176 504.779 44C505.462 41.7813 506.443 39.904 507.723 38.368C509.003 36.832 510.56 35.6587 512.395 34.848C514.272 34.0373 516.406 33.632 518.795 33.632C520.118 33.632 521.291 33.76 522.315 34.016C523.382 34.272 524.448 34.6347 525.515 35.104V19.872L535.051 18.336V66.912Z" fill="white"/>
<path d="M467.668 35.488C469.289 35.0187 471.38 34.592 473.94 34.208C476.5 33.7813 479.188 33.568 482.004 33.568C484.862 33.568 487.23 33.952 489.108 34.72C491.028 35.4453 492.542 36.4907 493.652 37.856C494.761 39.2213 495.55 40.8427 496.02 42.72C496.489 44.5973 496.724 46.688 496.724 48.992V68H487.188V50.144C487.188 47.072 486.782 44.896 485.972 43.616C485.161 42.336 483.646 41.696 481.428 41.696C480.745 41.696 480.02 41.7387 479.252 41.824C478.484 41.8667 477.801 41.9307 477.204 42.016V68H467.668V35.488Z" fill="white"/>
<path d="M458.704 68H449.168V34.336H458.704V68ZM459.6 24.608C459.6 26.3573 459.024 27.744 457.872 28.768C456.762 29.7493 455.44 30.24 453.904 30.24C452.368 30.24 451.024 29.7493 449.872 28.768C448.762 27.744 448.208 26.3573 448.208 24.608C448.208 22.8587 448.762 21.4933 449.872 20.512C451.024 19.488 452.368 18.976 453.904 18.976C455.44 18.976 456.762 19.488 457.872 20.512C459.024 21.4933 459.6 22.8587 459.6 24.608Z" fill="white"/>
<path d="M418.88 28.384C419.392 30.1333 419.947 32.1173 420.544 34.336C421.184 36.512 421.845 38.7733 422.528 41.12C423.253 43.4667 423.979 45.8133 424.704 48.16C425.429 50.5067 426.133 52.6827 426.816 54.688C427.371 52.512 427.925 50.144 428.48 47.584C429.077 45.024 429.632 42.3787 430.144 39.648C430.656 36.9173 431.147 34.208 431.616 31.52C432.128 28.7893 432.597 26.1653 433.024 23.648H443.392C441.899 31.072 440.171 38.6027 438.208 46.24C436.288 53.8773 434.197 61.1307 431.936 68H422.784C421.291 63.904 419.84 59.616 418.432 55.136C417.024 50.6133 415.637 46.0907 414.272 41.568C412.907 46.0907 411.541 50.6133 410.176 55.136C408.811 59.616 407.381 63.904 405.888 68H396.736C394.475 61.1307 392.363 53.8773 390.4 46.24C388.48 38.6027 386.773 31.072 385.28 23.648H396.096C396.523 26.1653 396.992 28.7893 397.504 31.52C398.016 34.208 398.549 36.9173 399.104 39.648C399.659 42.3787 400.213 45.024 400.768 47.584C401.365 50.144 401.963 52.512 402.56 54.688C403.328 52.5973 404.075 50.3787 404.8 48.032C405.525 45.6853 406.229 43.3387 406.912 40.992C407.595 38.6453 408.213 36.384 408.768 34.208C409.365 32.032 409.899 30.0907 410.368 28.384H418.88Z" fill="white"/>
</svg>
